<?xml version="1.0" standalone="no"?>
<!DOCTYPE svg PUBLIC "-//W3C//DTD SVG 20010904//EN"
 "http://www.w3.org/TR/2001/REC-SVG-20010904/DTD/svg10.dtd">
<svg version="1.0" xmlns="http://www.w3.org/2000/svg"
 width="128.000000pt" height="128.000000pt" viewBox="0 0 128.000000 128.000000"
 preserveAspectRatio="xMidYMid meet">

<g transform="translate(0.000000,128.000000) scale(0.100000,-0.100000)"
fill="#000000" stroke="none">
<path d="M244 1109 c-38 -14 -36 -81 3 -91 27 -7 59 7 65 29 12 46 -24 79 -68
62z"/>
<path d="M1078 953 c-14 -16 -59 -77 -99 -138 -41 -60 -112 -166 -159 -235
-79 -117 -87 -135 -113 -235 -16 -59 -26 -109 -23 -112 9 -9 206 147 220 175
8 15 82 124 165 242 129 183 151 220 151 251 0 74 -91 106 -142 52z m52 -33
l-31 -39 22 -31 c19 -24 21 -35 13 -58 -5 -15 -15 -27 -22 -27 -14 0 -262
-351 -262 -371 0 -20 -79 -72 -101 -67 -23 6 -23 7 -1 74 15 46 295 479 350
542 8 9 26 17 39 17 l25 0 -32 -40z"/>
<path d="M190 945 c0 -13 43 -15 330 -15 287 0 330 2 330 15 0 13 -43 15 -330
15 -287 0 -330 -2 -330 -15z"/>
<path d="M243 899 c-31 -11 -40 -54 -18 -79 23 -26 57 -25 80 0 36 40 -10 99
-62 79z"/>
<path d="M350 855 l0 -25 240 0 240 0 0 25 0 25 -240 0 -240 0 0 -25z"/>
<path d="M190 760 c0 -6 117 -10 330 -10 213 0 330 4 330 10 0 6 -117 10 -330
10 -213 0 -330 -4 -330 -10z"/>
<path d="M226 669 c-23 -33 0 -79 40 -79 14 0 30 10 40 25 15 23 15 27 0 50
-20 31 -59 33 -80 4z"/>
<path d="M244 499 c-39 -14 -35 -81 5 -94 43 -13 83 34 62 73 -12 23 -39 32
-67 21z"/>
<path d="M224 265 c-15 -23 -15 -27 0 -50 22 -33 60 -33 82 0 15 23 15 27 0
50 -10 15 -26 25 -41 25 -15 0 -31 -10 -41 -25z"/>
</g>
</svg>
